<svg xmlns="http://www.w3.org/2000/svg" xmlns:xlink="http://www.w3.org/1999/xlink" width="200" height="200" class="icon" p-id="12158" t="1552119951980" version="1.1" viewBox="0 0 1024 1024"><defs><style type="text/css"/></defs><path d="M938.728533 177.941333a128.064 128.064 0 0 1 0 241.450667v561.92a42.666667 42.666667 0 1 1-85.333333 0v-561.92A128.064 128.064 0 0 1 853.3952 177.92v-135.253333a42.666667 42.666667 0 1 1 85.333333 0v135.253333z m-384 213.333334a128.064 128.064 0 0 1 0 241.450666v348.586667a42.666667 42.666667 0 1 1-85.333333 0v-348.586667a128.064 128.064 0 0 1 0-241.450666V42.688a42.666667 42.666667 0 1 1 85.333333 0v348.586667z m-384 213.333333A128.064 128.064 0 0 1 170.728533 846.08v135.253333a42.666667 42.666667 0 1 1-85.333333 0v-135.253333A128.064 128.064 0 0 1 85.3952 604.586667V42.688a42.666667 42.666667 0 1 1 85.333333 0v561.92zM128.061867 789.333333a64 64 0 1 0 0-128 64 64 0 0 0 0 128z m384-213.333333a64 64 0 1 0 0-128 64 64 0 0 0 0 128z m384-213.333333a64 64 0 1 0 0-128 64 64 0 0 0 0 128z" p-id="12159"/></svg>