<svg xmlns="http://www.w3.org/2000/svg" xmlns:xlink="http://www.w3.org/1999/xlink" width="200" height="200" class="icon" p-id="2030" t="1552119019309" version="1.1" viewBox="0 0 1024 1024"><defs><style type="text/css"/></defs><path d="M197.3 197.3c-173.8 173.8-173.8 455.5 0 629.3s455.5 173.8 629.3 0 173.8-455.5 0-629.3-455.5-173.7-629.3 0zM907 512c0 51.3-9.7 101.3-28.9 148.7-19.9 49-49.1 92.9-86.8 130.6s-81.7 66.9-130.6 86.8C613.3 897.3 563.3 907 512 907c-51.3 0-101.3-9.7-148.7-28.9-49-19.9-92.9-49.1-130.6-86.8s-66.9-81.7-86.8-130.6C126.7 613.3 117 563.3 117 512c0-51.3 9.7-101.3 28.9-148.7 19.9-49 49.1-92.9 86.8-130.6s81.7-66.9 130.6-86.8C410.7 126.7 460.7 117 512 117c51.3 0 101.3 9.7 148.7 28.9 49 19.9 92.9 49.1 130.6 86.8s66.9 81.7 86.8 130.6C897.3 410.7 907 460.7 907 512zM537 262v225h225v50H537v225h-50V537H262v-50h225V262h50z" p-id="2031"/></svg>